# xmcd
#
# Track frame offsets:
#	150
#	15200
#	42042
#	60495
#	76610
#	93597
#	99157
#	114740
#	131045
#	145087
#	151147
#	166215
#
# Disc length: 2456 seconds
#
# Revision: 1
# Processed by: cddbd v1.5.2PL0 Copyright (c) Steve Scherf et al.
# Submitted via: audiograbber 1.82.01
#
DISCID=8109960c
DTITLE=Egger Gerhard und die Mostrocker - Hoamatblues
DYEAR=1900
DGENRE=
TTITLE0=Der Mehlknödel und der Griesknödel
TTITLE1=Die Ballade vom Woldschütz
TTITLE2=Scheni Leni
TTITLE3=Touristen
TTITLE4=I bi a Gosinger
TTITLE5=Dirndl mei mei
TTITLE6=Für nix und wieder nix
TTITLE7=Übern See
TTITLE8=Hinter da Hollastaudn
TTITLE9=Der Fotzhobler
TTITLE10=I steh auf
TTITLE11=Hoamatblues
EXTD=
EXTT0=
EXTT1=
EXTT2=
EXTT3=
EXTT4=
EXTT5=
EXTT6=
EXTT7=
EXTT8=
EXTT9=
EXTT10=
EXTT11=
PLAYORDER=
